<?xml version="1.0" encoding="UTF-8" standalone="no"?>
<svg
   xmlns:dc="http://purl.org/dc/elements/1.1/"
   xmlns:cc="http://creativecommons.org/ns#"
   xmlns:rdf="http://www.w3.org/1999/02/22-rdf-syntax-ns#"
   xmlns:svg="http://www.w3.org/2000/svg"
   xmlns="http://www.w3.org/2000/svg"
   xmlns:sodipodi="http://sodipodi.sourceforge.net/DTD/sodipodi-0.dtd"
   xmlns:inkscape="http://www.inkscape.org/namespaces/inkscape"
   width="37"
   height="37"
   viewBox="0 0 3.7888 3.7888"
   preserveAspectRatio="xMidYMid"
   id="svg2"
   version="1.1"
   inkscape:version="0.48.5 r10040"
   sodipodi:docname="dribbble-icon.svg">
  <metadata
     id="metadata12">
    <rdf:RDF>
      <cc:Work
         rdf:about="">
        <dc:format>image/svg+xml</dc:format>
        <dc:type
           rdf:resource="http://purl.org/dc/dcmitype/StillImage" />
      </cc:Work>
    </rdf:RDF>
  </metadata>
  <defs
     id="defs10" />
  <sodipodi:namedview
     pagecolor="#ffffff"
     bordercolor="#666666"
     borderopacity="1"
     objecttolerance="10"
     gridtolerance="10"
     guidetolerance="10"
     inkscape:pageopacity="0"
     inkscape:pageshadow="2"
     inkscape:window-width="1920"
     inkscape:window-height="1027"
     id="namedview8"
     showgrid="false"
     inkscape:zoom="12.0832"
     inkscape:cx="48.22204"
     inkscape:cy="26.831734"
     inkscape:window-x="0"
     inkscape:window-y="0"
     inkscape:window-maximized="1"
     inkscape:current-layer="svg2" />
  <g
     id="g2989"
     transform="matrix(0.01479716,0,0,0.01479716,4.4790052e-8,3.7411507)">
    <path
       style="fill:#e74d89"
       inkscape:connector-curvature="0"
       id="path4"
       d="m 128,-243.7112 c 66,0 119.4,53.4 119.4,119.3 0,65.9 -53.4,119.4 -119.4,119.4 -66,0 -119.4,-53.4 -119.4,-119.3 0,-65.9 53.4,-119.4 119.4,-119.4 z" />
    <path
       style="fill:#b2215a"
       inkscape:connector-curvature="0"
       id="path6"
       d="m 128,3.4888 c -70.6,0 -128,-57.3 -128,-127.8 0,-70.6 57.4,-127.9 128,-127.9 70.6,0 128,57.3 128,127.8 0,70.5 -57.4,127.9 -128,127.9 z m 107.9,-110.4 c -3.7,-1.2 -33.8,-10.1 -68.1,-4.7 14.3,39.2 20.1,71.2 21.2,77.8 24.6,-16.5 42.1,-42.7 46.9,-73.1 z m -65.2,83.2 c -1.6,-9.6 -8,-43 -23.3,-82.8 -0.2,0.1 -0.5,0.2 -0.7,0.2 -61.7,21.5 -83.8,64.2 -85.8,68.2 18.5,14.4 41.8,23 67.1,23 15.1,0.1 29.6,-3 42.7,-8.6 z m -123.9,-27.5 c 2.5,-4.2 32.5,-53.8 88.9,-72.1 1.4,-0.5 2.9,-0.9 4.3,-1.3 -2.7,-6.2 -5.7,-12.4 -8.9,-18.5 -54.6,16.3 -107.6,15.6 -112.4,15.5 0,1.1 -0.1,2.2 -0.1,3.3 0.1,28.1 10.7,53.7 28.2,73.1 z m -25.8,-95.4 c 4.9,0.1 49.9,0.3 101.1,-13.3 -18.1,-32.2 -37.7,-59.2 -40.5,-63.1 -30.7,14.4 -53.5,42.6 -60.6,76.4 z m 81.4,-83.8 c 3,4 22.9,31 40.8,63.9 38.9,-14.6 55.3,-36.6 57.3,-39.4 -19.3,-17.1 -44.7,-27.5 -72.5,-27.5 -8.8,0 -17.4,1.1 -25.6,3 z m 110.2,37.1 c -2.3,3.1 -20.6,26.6 -61,43.1 2.5,5.2 5,10.5 7.3,15.8 0.8,1.9 1.6,3.8 2.4,5.6 36.4,-4.6 72.5,2.8 76.1,3.5 -0.3,-25.7 -9.5,-49.4 -24.8,-68 z" />
  </g>
</svg>
