<svg xmlns="http://www.w3.org/2000/svg" viewBox="0 0 2388.11 918.02"><defs><style>.cls-1{fill:#4795d1;}</style></defs><title>Element 1</title><g id="Ebene_2" data-name="Ebene 2"><g id="Ebene_1-2" data-name="Ebene 1"><path class="cls-1" d="M0,721.66Q0,573.3,138.23,415.93T423.68,258.55q121.23,0,121.25,108,0,117.82-128.66,209.46t-287,108A192.14,192.14,0,0,0,126,721.66a189.45,189.45,0,0,0,2.45,31.1q2.45,14.71,13.17,40.08t39.48,40.92q28.77,15.55,71.54,15.54,99.79,0,203.73-81T624.11,566.2l32.73,26.18Q591.37,738.92,469.47,828.47T216.47,918Q113.91,918,57,862.84T0,721.66Zm147.38-98.18Q242.77,612,348.84,528.56T454.92,358.37q0-31.06-27.95-31.09-72.41,0-157.91,94.91T147.38,623.48Z"/><path class="cls-1" d="M572.72,751.11q0-65.44,34.39-172.64t93.33-197.2q59-90,116.26-90,21.17,0,35.06,12.32t13.88,35.29q0,21.32-41.45,89.46T740.74,582.66q-42,86.19-42,148.53,0,50.93,17.78,69t54.94,18.06q128.91,0,256.21-251l24.54,26.23Q995,737,907.09,816.84t-189,79.91q-69.42,0-107.39-40.92T572.72,751.11ZM828,94.91q0-37.62,41.73-66.27T958.92,0q70.34,0,70.37,60.54,0,34.37-37.64,66.28t-81.82,31.91q-34.36,0-58.09-16.37T828,94.91Z"/><path class="cls-1" d="M922.9,824.76q0-1.61,29.46-73.65T1008,589.64q26.16-89.47,26.18-151.31,35.17-38.16,83.12-38.17,56,0,56,47.7,0,43.87-27.18,144.52,167.45-219.28,310.28-219.28,66.19,0,102.66,44T1595.46,522q0,54-32.72,133.37T1530,767.48q0,47.47,40.27,47.44,54,0,117-74.45T1801,564.56l27.82,22.91Q1699.54,880.42,1535,880.38q-62.25,0-96.65-31.1T1404,767.48q0-32.72,22.91-106.37t22.91-109.65q0-63.81-57.36-63.83-45.6,0-96.9,36.84T1189.71,633.29q-54.57,72-83.87,116.19L1029.27,872.2Q958.93,872.2,922.9,824.76Z"/><path class="cls-1" d="M1731.27,721.66q0-148.35,138.23-305.73t285.44-157.38q121.25,0,121.25,108,0,117.82-128.66,209.46t-287,108a192.14,192.14,0,0,0-3.29,37.63,189.46,189.46,0,0,0,2.45,31.1q2.45,14.71,13.18,40.08t39.47,40.92q28.77,15.55,71.54,15.54,99.8,0,203.75-81T2355.38,566.2l32.73,26.18q-65.47,146.54-187.37,236.09t-253,89.54q-102.55,0-159.5-55.18T1731.27,721.66Zm147.38-98.18Q1974,612,2080.11,528.56t106.08-170.19q0-31.06-27.94-31.09-72.42,0-157.91,94.91T1878.64,623.48Z"/></g></g></svg>