<?xml version="1.0" encoding="UTF-8" standalone="no"?>
<svg
   xmlns:dc="http://purl.org/dc/elements/1.1/"
   xmlns:cc="http://creativecommons.org/ns#"
   xmlns:rdf="http://www.w3.org/1999/02/22-rdf-syntax-ns#"
   xmlns:svg="http://www.w3.org/2000/svg"
   xmlns="http://www.w3.org/2000/svg"
   xmlns:sodipodi="http://sodipodi.sourceforge.net/DTD/sodipodi-0.dtd"
   xmlns:inkscape="http://www.inkscape.org/namespaces/inkscape"
   version="1.1"
   x="0px"
   y="0px"
   viewBox="0 0 100 125"
   enable-background="new 0 0 100 100"
   xml:space="preserve"
   id="svg2"
   inkscape:version="0.48.5 r10040"
   width="100%"
   height="100%"
   sodipodi:docname="notification-alert.svg"><metadata
     id="metadata18"><rdf:RDF><cc:Work
         rdf:about=""><dc:format>image/svg+xml</dc:format><dc:type
           rdf:resource="http://purl.org/dc/dcmitype/StillImage" /></cc:Work></rdf:RDF></metadata><defs
     id="defs16" /><sodipodi:namedview
     pagecolor="#ffffff"
     bordercolor="#666666"
     borderopacity="1"
     objecttolerance="10"
     gridtolerance="10"
     guidetolerance="10"
     inkscape:pageopacity="0"
     inkscape:pageshadow="2"
     inkscape:window-width="1920"
     inkscape:window-height="1027"
     id="namedview14"
     showgrid="false"
     inkscape:zoom="7.552"
     inkscape:cx="25.245771"
     inkscape:cy="72.117532"
     inkscape:window-x="0"
     inkscape:window-y="0"
     inkscape:window-maximized="1"
     inkscape:current-layer="svg2" /><path
     fill="#000000"
     d="M49.495,95c4.479,0,8.287-2.864,9.695-6.86H39.798C41.21,92.136,45.017,95,49.495,95z"
     id="path4"
     style="fill:#8ca0b3;fill-opacity:1" /><path
     fill="#000000"
     d="M59.293,78.672c0-9.068,7.352-16.42,16.42-16.42c1.018,0,2.012,0.098,2.977,0.274  c-2.92-7.912-4.818-18.164-4.818-27.845C73.872,18.355,62.627,5,48.887,5C35.144,5,23.901,18.355,23.901,34.681  c0,16.324-5.396,34.272-11.989,39.886c-6.594,5.613,3.417,10.205,22.245,10.205h26.312C59.713,82.885,59.293,80.828,59.293,78.672z"
     id="path6"
     style="fill:#8ca0b3;fill-opacity:1" /><path
     fill="#000000"
     d="M76.256,65.325c-7.656,0-13.861,6.206-13.861,13.861S68.6,93.047,76.256,93.047  c7.654,0,13.861-6.206,13.861-13.861S83.911,65.325,76.256,65.325z M74.28,72.493c0-1.091,0.885-1.977,1.977-1.977  s1.979,0.886,1.979,1.977v7.868c0,1.091-0.887,1.976-1.979,1.976s-1.977-0.884-1.977-1.976V72.493z M76.256,87.855  c-1.205,0-2.178-0.975-2.178-2.179c0-1.203,0.973-2.178,2.178-2.178s2.18,0.976,2.18,2.178  C78.436,86.88,77.461,87.855,76.256,87.855z"
     id="path8"
     style="fill:#ff6600" /></svg>