<?xml version="1.0" encoding="UTF-8" standalone="no"?>
<svg
   xmlns:dc="http://purl.org/dc/elements/1.1/"
   xmlns:cc="http://creativecommons.org/ns#"
   xmlns:rdf="http://www.w3.org/1999/02/22-rdf-syntax-ns#"
   xmlns:svg="http://www.w3.org/2000/svg"
   xmlns="http://www.w3.org/2000/svg"
   xmlns:sodipodi="http://sodipodi.sourceforge.net/DTD/sodipodi-0.dtd"
   xmlns:inkscape="http://www.inkscape.org/namespaces/inkscape"
   version="1.1"
   x="0px"
   y="0px"
   viewBox="0 0 99.998 125"
   enable-background="new 0 0 99.998 100"
   xml:space="preserve"
   id="svg2"
   inkscape:version="0.48.5 r10040"
   width="100%"
   height="100%"
   sodipodi:docname="notification-new.svg"><metadata
     id="metadata18"><rdf:RDF><cc:Work
         rdf:about=""><dc:format>image/svg+xml</dc:format><dc:type
           rdf:resource="http://purl.org/dc/dcmitype/StillImage" /></cc:Work></rdf:RDF></metadata><defs
     id="defs16" /><sodipodi:namedview
     pagecolor="#ffffff"
     bordercolor="#666666"
     borderopacity="1"
     objecttolerance="10"
     gridtolerance="10"
     guidetolerance="10"
     inkscape:pageopacity="0"
     inkscape:pageshadow="2"
     inkscape:window-width="1920"
     inkscape:window-height="1027"
     id="namedview14"
     showgrid="false"
     inkscape:zoom="5.3400704"
     inkscape:cx="13.598454"
     inkscape:cy="54.898382"
     inkscape:window-x="0"
     inkscape:window-y="0"
     inkscape:window-maximized="1"
     inkscape:current-layer="svg2" /><path
     fill="#000000"
     d="M49.111,95c4.492,0,8.313-2.873,9.728-6.882H39.384C40.8,92.127,44.619,95,49.111,95z"
     id="path4"
     style="fill:#8ca0b3;fill-opacity:1" /><path
     fill="#000000"
     d="M76.025,62.434c1.02,0,2.016,0.098,2.984,0.275c-2.929-7.937-4.833-18.222-4.833-27.934  C74.177,18.398,62.897,5,49.111,5S24.046,18.398,24.046,34.775c0,16.376-5.412,34.382-12.027,40.013s3.428,10.237,22.315,10.237  H60.73c-0.757-1.892-1.179-3.956-1.179-6.118C59.552,69.81,66.928,62.434,76.025,62.434z"
     id="path6"
     style="fill:#8ca0b3;fill-opacity:1" /><path
     fill="#000000"
     d="M76.112,65.002c-7.68,0-13.905,6.226-13.905,13.905s6.226,13.905,13.905,13.905s13.905-6.226,13.905-13.905  S83.792,65.002,76.112,65.002z M83.71,76.87l-8.026,8.252c-0.332,0.341-0.756,0.531-1.194,0.587  c-0.002,0.001-0.004,0.001-0.005,0.001c-0.084,0.01-0.167,0.024-0.252,0.024c-0.009,0-0.018-0.002-0.026-0.003  c-0.012,0.001-0.024,0.003-0.036,0.003c-0.612,0-1.216-0.275-1.614-0.801l-4.202-5.537c-0.676-0.891-0.502-2.16,0.389-2.836  c0.892-0.675,2.16-0.502,2.837,0.389l2.807,3.699l6.422-6.602c0.78-0.801,2.062-0.818,2.863-0.039  C84.472,74.787,84.489,76.068,83.71,76.87z"
     id="path8"
     style="fill:#aad400" /></svg>