<?xml version="1.0" encoding="UTF-8" standalone="no"?>
<svg
   xmlns:dc="http://purl.org/dc/elements/1.1/"
   xmlns:cc="http://creativecommons.org/ns#"
   xmlns:rdf="http://www.w3.org/1999/02/22-rdf-syntax-ns#"
   xmlns:svg="http://www.w3.org/2000/svg"
   xmlns="http://www.w3.org/2000/svg"
   xmlns:sodipodi="http://sodipodi.sourceforge.net/DTD/sodipodi-0.dtd"
   xmlns:inkscape="http://www.inkscape.org/namespaces/inkscape"
   version="1.1"
   x="0px"
   y="0px"
   viewBox="0 0 32 40"
   enable-background="new 0 0 32 32"
   xml:space="preserve"
   id="svg2"
   inkscape:version="0.48.5 r10040"
   width="100%"
   height="100%"
   sodipodi:docname="savings.svg"><metadata
     id="metadata20"><rdf:RDF><cc:Work
         rdf:about=""><dc:format>image/svg+xml</dc:format><dc:type
           rdf:resource="http://purl.org/dc/dcmitype/StillImage" /></cc:Work></rdf:RDF></metadata><defs
     id="defs18" /><sodipodi:namedview
     pagecolor="#ffffff"
     bordercolor="#666666"
     borderopacity="1"
     objecttolerance="10"
     gridtolerance="10"
     guidetolerance="10"
     inkscape:pageopacity="0"
     inkscape:pageshadow="2"
     inkscape:window-width="1920"
     inkscape:window-height="1027"
     id="namedview16"
     showgrid="false"
     inkscape:zoom="5.9"
     inkscape:cx="16.338983"
     inkscape:cy="20"
     inkscape:window-x="0"
     inkscape:window-y="0"
     inkscape:window-maximized="1"
     inkscape:current-layer="svg2" /><path
     d="m 9.6610169,12.220339 c 1.2653811,0 2.3425291,1.047729 2.7833861,2.525391 1.156799,-0.334172 2.406067,-0.525391 3.716614,-0.525391 5.389893,0 9.825439,2.71497 10.425293,7 h 0.574707 c 0.276123,0 0.5,0.22382 0.5,0.5 0,0.276119 -0.223877,0.5 -0.5,0.5 h -0.5 c 0,2.845756 -1.618774,5.094788 -4.119019,6.476013 l -0.880981,3.523987 h -2 l -0.571899,-2.287537 c -0.930298,0.185608 -1.910767,0.287537 -2.928101,0.287537 -0.97876,0 -1.957336,-0.139648 -2.902039,-0.391777 l -0.597961,2.391777 h -2 L 9.6621766,28.224856 C 7.9342103,27.099978 6.6043153,25.601496 6.0094056,24.003122 L 3.6610169,23.220339 v -3.5 c 0,-0.27618 0.223877,-0.5 0.5,-0.5 h 2.2703857 c 0.6892701,-1.296261 1.8109742,-2.420898 3.2296143,-3.27515 v -3.72485 m 0,-1 c -0.5522766,0 -1,0.44772 -1,1 v 3.176449 C 7.4932618,16.182558 6.53797,17.144781 5.8570618,18.220339 H 4.1610169 c -0.8270874,0 -1.5,0.672901 -1.5,1.5 v 3.5 c 0,0.430428 0.2754211,0.812569 0.6837769,0.948692 l 1.914978,0.638314 c 0.6768494,1.498237 1.9073181,2.906822 3.5253906,4.032501 l 0.9057007,3.623024 c 0.1112976,0.445167 0.5112919,0.757469 0.9701539,0.757469 h 2 c 0.458862,0 0.858856,-0.312286 0.970154,-0.757462 l 0.361145,-1.444541 c 0.728088,0.134231 1.454193,0.202003 2.168701,0.202003 0.731201,0 1.461822,-0.04986 2.182068,-0.148621 l 0.347778,1.391159 c 0.111298,0.445176 0.511292,0.757462 0.970154,0.757462 h 2 c 0.458862,0 0.858856,-0.312302 0.970154,-0.757469 l 0.778351,-3.113564 c 2.415008,-1.465248 3.903778,-3.672775 4.197753,-6.196731 0.609864,-0.190422 1.053742,-0.760468 1.053742,-1.432236 0,-0.741936 -0.541412,-1.359783 -1.249908,-1.479153 -1.067017,-4.174823 -5.551453,-7.020847 -11.250092,-7.020847 -1.048309,0 -2.091034,0.114021 -3.110657,0.339584 -0.716827,-1.446876 -1.976898,-2.339584 -3.3893431,-2.339584 l 0,0 z"
     id="path4"
     inkscape:connector-curvature="0" /><path
     d="m 20.161017,17.470339 c -0.06055,0 -0.12207,-0.01074 -0.182617,-0.03467 -2.423828,-0.949219 -5.210938,-0.949219 -7.634766,0 -0.258789,0.102539 -0.547851,-0.02637 -0.648437,-0.283203 -0.100586,-0.256836 0.02637,-0.546875 0.283203,-0.647461 2.658203,-1.041016 5.707031,-1.041016 8.365234,0 0.256836,0.100586 0.383789,0.390625 0.283203,0.647461 -0.07715,0.197265 -0.266601,0.317871 -0.46582,0.317871 z"
     id="path6"
     inkscape:connector-curvature="0" /><path
     d="m 16.161017,6.220339 c 1.378509,0 2.5,1.1214981 2.5,2.5 0,1.378502 -1.121491,2.5 -2.5,2.5 -1.37851,0 -2.5,-1.121498 -2.5,-2.5 0,-1.3785019 1.12149,-2.5 2.5,-2.5 m 0,-1 c -1.932983,0 -3.5,1.567009 -3.5,3.5 0,1.932991 1.567017,3.5 3.5,3.5 1.932983,0 3.5,-1.567009 3.5,-3.5 0,-1.932991 -1.567017,-3.5 -3.5,-3.5 l 0,0 z"
     id="path8"
     inkscape:connector-curvature="0" /><path
     d="m 16.161017,10.220339 0,0 c -0.276142,0 -0.5,-0.2238574 -0.5,-0.4999995 v -2.000001 c 0,-0.2761421 0.223858,-0.4999995 0.5,-0.4999995 l 0,0 c 0.276142,0 0.5,0.2238574 0.5,0.4999995 v 2.000001 c 0,0.2761421 -0.223858,0.4999995 -0.5,0.4999995 z"
     id="path10"
     inkscape:connector-curvature="0" /></svg>