<?xml version="1.0" encoding="UTF-8" standalone="no"?>
<svg
   xmlns:dc="http://purl.org/dc/elements/1.1/"
   xmlns:cc="http://creativecommons.org/ns#"
   xmlns:rdf="http://www.w3.org/1999/02/22-rdf-syntax-ns#"
   xmlns:svg="http://www.w3.org/2000/svg"
   xmlns="http://www.w3.org/2000/svg"
   xmlns:sodipodi="http://sodipodi.sourceforge.net/DTD/sodipodi-0.dtd"
   xmlns:inkscape="http://www.inkscape.org/namespaces/inkscape"
   version="1.1"
   x="0px"
   y="0px"
   viewBox="0 0 100 125"
   enable-background="new 0 0 100 100"
   xml:space="preserve"
   id="svg2"
   inkscape:version="0.48.5 r10040"
   width="100%"
   height="100%"
   sodipodi:docname="search-icon.svg"><metadata
     id="metadata14"><rdf:RDF><cc:Work
         rdf:about=""><dc:format>image/svg+xml</dc:format><dc:type
           rdf:resource="http://purl.org/dc/dcmitype/StillImage" /></cc:Work></rdf:RDF></metadata><defs
     id="defs12" /><sodipodi:namedview
     pagecolor="#ffffff"
     bordercolor="#666666"
     borderopacity="1"
     objecttolerance="10"
     gridtolerance="10"
     guidetolerance="10"
     inkscape:pageopacity="0"
     inkscape:pageshadow="2"
     inkscape:window-width="1920"
     inkscape:window-height="1027"
     id="namedview10"
     showgrid="false"
     inkscape:zoom="3.776"
     inkscape:cx="-19.888791"
     inkscape:cy="50.385609"
     inkscape:window-x="0"
     inkscape:window-y="0"
     inkscape:window-maximized="1"
     inkscape:current-layer="svg2" /><path
     d="M93.081,83.817L76.043,66.779c-1.546-1.547-3.672-2.143-5.679-1.819l-3.79-3.79c10.885-13.576,10.039-33.454-2.55-46.043  C57.273,8.376,48.424,5,39.576,5c-8.849,0-17.697,3.376-24.449,10.127c-13.503,13.503-13.503,35.395,0,48.897  c6.751,6.751,15.6,10.127,24.449,10.127c7.651,0,15.299-2.529,21.595-7.577l3.79,3.79c-0.324,2.006,0.272,4.132,1.819,5.679  l17.038,17.038C85.095,94.36,86.773,95,88.449,95c1.676,0,3.353-0.64,4.632-1.919C95.64,90.523,95.64,86.375,93.081,83.817z   M39.576,66.508c-7.194,0-13.957-2.801-19.044-7.888c-5.087-5.087-7.888-11.85-7.888-19.044c0-7.194,2.801-13.957,7.888-19.044  c5.087-5.087,11.85-7.888,19.044-7.888c7.194,0,13.957,2.801,19.044,7.888c5.087,5.087,7.888,11.85,7.888,19.044  c0,7.194-2.801,13.957-7.888,19.044C53.533,63.707,46.769,66.508,39.576,66.508z"
     id="path4"
     style="fill:#dadada;fill-opacity:1" /></svg>