<?xml version="1.0" encoding="UTF-8" standalone="no"?>
<svg
   xmlns:dc="http://purl.org/dc/elements/1.1/"
   xmlns:cc="http://creativecommons.org/ns#"
   xmlns:rdf="http://www.w3.org/1999/02/22-rdf-syntax-ns#"
   xmlns:svg="http://www.w3.org/2000/svg"
   xmlns="http://www.w3.org/2000/svg"
   xmlns:sodipodi="http://sodipodi.sourceforge.net/DTD/sodipodi-0.dtd"
   xmlns:inkscape="http://www.inkscape.org/namespaces/inkscape"
   version="1.1"
   viewBox="0 0 37 37"
   id="svg2"
   inkscape:version="0.48.5 r10040"
   width="100%"
   height="100%"
   sodipodi:docname="steam-logo.svg">
  <metadata
     id="metadata24">
    <rdf:RDF>
      <cc:Work
         rdf:about="">
        <dc:format>image/svg+xml</dc:format>
        <dc:type
           rdf:resource="http://purl.org/dc/dcmitype/StillImage" />
      </cc:Work>
    </rdf:RDF>
  </metadata>
  <sodipodi:namedview
     pagecolor="#ffffff"
     bordercolor="#666666"
     borderopacity="1"
     objecttolerance="10"
     gridtolerance="10"
     guidetolerance="10"
     inkscape:pageopacity="0"
     inkscape:pageshadow="2"
     inkscape:window-width="1920"
     inkscape:window-height="1027"
     id="namedview22"
     showgrid="false"
     inkscape:zoom="17.114754"
     inkscape:cx="33.767908"
     inkscape:cy="19.056025"
     inkscape:window-x="0"
     inkscape:window-y="0"
     inkscape:window-maximized="1"
     inkscape:current-layer="svg2" />
  <defs
     id="defs4">
    <linearGradient
       id="a"
       x2="39.039489"
       x1="39.039489"
       y2="40.122291"
       gradientTransform="scale(2.3663988,0.42258305)"
       y1="19.604194"
       gradientUnits="userSpaceOnUse">
      <stop
         stop-color="#F6F6F6"
         offset="0"
         id="stop7" />
      <stop
         stop-color="#989693"
         offset="1"
         id="stop9" />
    </linearGradient>
    <linearGradient
       id="b"
       x2="23.747914"
       x1="23.747914"
       y2="47.234067"
       gradientTransform="matrix(0.77112586,0,0,0.35392535,0.21469013,8.5026207)"
       y1="7.3803473"
       gradientUnits="userSpaceOnUse">
      <stop
         stop-color="#EFEFEE"
         offset="0"
         id="stop12" />
      <stop
         stop-color="#84827E"
         offset="1"
         id="stop14" />
    </linearGradient>
  </defs>
  <path
     d="M 1.516393,-8.6e-7 H 36.999996 V 37 H 0 V -8.6e-7 h 1.516393 z"
     id="path16"
     inkscape:connector-curvature="0"
     style="fill:#171a21" />
  <path
     d="m 29.75327,11.114713 c -2.28349,0 -4.140688,1.857197 -4.140688,4.140165 0,0.01829 0,0.03657 0.001,0.05381 l -2.667468,3.867987 c -0.43204,-0.01881 -0.865647,0.05642 -1.276791,0.225684 -0.181279,0.07366 -0.351065,0.164562 -0.510403,0.269046 L 9.1375964,14.70216 c -0.202176,-0.935652 -0.842139,-1.761595 -1.7908504,-2.157588 -1.5385222,-0.640485 -3.3116102,0.08986 -3.95314,1.6289 -0.6410074,1.538 0.089856,3.311088 1.6283781,3.952096 0.7449686,0.310316 1.5662104,0.311884 2.3132687,0.0052 0.1718756,-0.07105 0.3338256,-0.158815 0.4884616,-0.256507 l 12.0480126,4.980737 c 0.207922,0.92677 0.845273,1.740698 1.785626,2.131989 1.538522,0.642052 3.312132,-0.08933 3.952617,-1.626288 0.166129,-0.401218 0.24397,-0.822809 0.232476,-1.243356 l 3.816789,-2.722845 c 0.03134,0.001 0.06269,0.0016 0.09403,0.0016 2.283491,0 4.140166,-1.858242 4.140166,-4.141211 5e-6,-2.282977 -1.85667,-4.140174 -4.140161,-4.140174 M 5.2878951,17.487695 C 4.3935148,17.115211 3.8528117,16.246429 3.8528117,15.332196 c 0,-0.298823 0.057466,-0.601303 0.179712,-0.892813 0.4936854,-1.187457 1.8618991,-1.751146 3.0483113,-1.256938 0.5600324,0.232998 0.9774444,0.660337 1.2146224,1.170739 L 6.9157508,13.782703 c -0.8745284,-0.364125 -1.8796614,0.04963 -2.2448318,0.924681 -0.3641257,0.875573 0.050152,1.881751 0.9246805,2.245877 l 1.3838863,0.571526 c -0.5511514,0.201131 -1.1477532,0.190682 -1.6915907,-0.03709 m 19.6852469,5.606072 c -0.495775,1.186934 -1.862421,1.750624 -3.050401,1.256416 -0.548017,-0.228297 -0.961772,-0.645709 -1.200517,-1.143574 l 1.347839,0.557943 c 0.876096,0.364648 1.881229,-0.05015 2.245354,-0.924681 0.365171,-0.87505 -0.04911,-1.880183 -0.92468,-2.244831 l -1.39329,-0.576228 c 0.537569,-0.203743 1.148798,-0.211057 1.719801,0.02612 0.575705,0.239268 1.022373,0.68907 1.259029,1.264775 0.237178,0.575705 0.236133,1.210443 -0.0031,1.784059 m 4.780128,-5.079474 c -1.520759,0 -2.758369,-1.238132 -2.758369,-2.759415 0,-1.520237 1.23761,-2.758369 2.758369,-2.758369 1.52076,0 2.758892,1.238132 2.758892,2.758369 0,1.521283 -1.238132,2.759415 -2.758892,2.759415 m 0.0042,-0.691682 c -1.143574,0 -2.071389,-0.927293 -2.071389,-2.071912 0,-1.144619 0.927815,-2.072956 2.071389,-2.072956 1.144619,0 2.072956,0.928337 2.072956,2.072956 0,1.144619 -0.928337,2.071912 -2.072956,2.071912"
     id="path20"
     inkscape:connector-curvature="0"
     style="fill:url(#b)" />
</svg>
