<?xml version="1.0" encoding="UTF-8" standalone="no"?>
<svg
   xmlns:dc="http://purl.org/dc/elements/1.1/"
   xmlns:cc="http://creativecommons.org/ns#"
   xmlns:rdf="http://www.w3.org/1999/02/22-rdf-syntax-ns#"
   xmlns:svg="http://www.w3.org/2000/svg"
   xmlns="http://www.w3.org/2000/svg"
   xmlns:sodipodi="http://sodipodi.sourceforge.net/DTD/sodipodi-0.dtd"
   xmlns:inkscape="http://www.inkscape.org/namespaces/inkscape"
   version="1.1"
   x="0px"
   y="0px"
   viewBox="0 0 100 100"
   enable-background="new 0 0 100 100"
   xml:space="preserve"
   id="svg2"
   inkscape:version="0.48.5 r10040"
   width="100%"
   height="100%"
   sodipodi:docname="user-password-icon.svg"><metadata
     id="metadata14"><rdf:RDF><cc:Work
         rdf:about=""><dc:format>image/svg+xml</dc:format><dc:type
           rdf:resource="http://purl.org/dc/dcmitype/StillImage" /><dc:title></dc:title></cc:Work></rdf:RDF></metadata><defs
     id="defs12" /><sodipodi:namedview
     pagecolor="#ffffff"
     bordercolor="#666666"
     borderopacity="1"
     objecttolerance="10"
     gridtolerance="10"
     guidetolerance="10"
     inkscape:pageopacity="0"
     inkscape:pageshadow="2"
     inkscape:window-width="1920"
     inkscape:window-height="1027"
     id="namedview10"
     showgrid="true"
     showguides="true"
     inkscape:zoom="3.776"
     inkscape:cx="54.147597"
     inkscape:cy="52.747196"
     inkscape:window-x="0"
     inkscape:window-y="0"
     inkscape:window-maximized="1"
     inkscape:current-layer="svg2"><inkscape:grid
       type="xygrid"
       id="grid2991"
       empspacing="5"
       visible="true"
       enabled="true"
       snapvisiblegridlinesonly="true" /></sodipodi:namedview><path
     d="m 50.227542,73.481356 h -31.6 v -8.9 c 0,-1.9 0.8,-3.7 2.3,-4.9 8,-6.6 16.7,-11 18.5,-11.9 0.2,-0.1 0.3,-0.3 0.3,-0.5 v -12.5 c -1.6,-1 -2.6,-2.8 -2.6,-4.9 v -13 c 0,-6.4 5.2,-11.6000001 11.7,-11.6000001 h 1.4 1.4 c 6.5,0 11.7,5.2000001 11.7,11.7000001 v 13 c 0,2 -1,3.8 -2.6,4.9 v 12.5 c 0,0.2 0.1,0.4 0.3,0.5 1.8,0.9 10.4,5.3 18.5,11.9 1.5,1.2 2.3,3 2.3,4.9 v 8.8 h -31.6 z m -30.9,22.2 h 10.2 c 0.5,0 0.9,-0.4 0.9,-0.9 v -1.2 c 0,-0.5 -0.4,-0.9 -0.9,-0.9 h -10.2 c -0.5,0 -0.9,0.4 -0.9,0.9 v 1.2 c 0,0.5 0.4,0.9 0.9,0.9 z m 16.1,-2 v 1.2 c 0,0.5 0.4,0.9 0.9,0.9 h 10.2 c 0.5,0 0.9,-0.4 0.9,-0.9 v -1.2 c 0,-0.5 -0.4,-0.9 -0.9,-0.9 h -10.2 c -0.5,0 -0.9,0.4 -0.9,0.9 z m 17,0 v 1.2 c 0,0.5 0.4,0.9 0.9,0.9 h 10.2 c 0.5,0 0.9,-0.4 0.9,-0.9 v -1.2 c 0,-0.5 -0.4,-0.9 -0.9,-0.9 h -10.2 c -0.5,0 -0.9,0.4 -0.9,0.9 z m 16.9,0 v 1.2 c 0,0.5 0.4,0.9 0.9,0.9 h 10.2 c 0.5,0 0.9,-0.4 0.9,-0.9 v -1.2 c 0,-0.5 -0.4,-0.9 -0.9,-0.9 h -10.2 c -0.5,0 -0.9,0.4 -0.9,0.9 z m -40.4,-11.7 -0.4,-0.6 c -0.2,-0.3 -0.5,-0.3 -0.7,-0.2 l -2.5,1.5 v -2.9 c 0,-0.3 -0.2,-0.5 -0.5,-0.5 h -0.7 c -0.3,0 -0.5,0.2 -0.5,0.5 v 2.9 l -2.5,-1.5 c -0.3,-0.2 -0.6,-0.1 -0.7,0.2 l -0.4,0.6 c -0.2,0.3 -0.1,0.6 0.2,0.7 l 2.6,1.5 -2.7,1.5 c -0.3,0.2 -0.3,0.5 -0.2,0.7 l 0.4,0.6 c 0.2,0.3 0.5,0.3 0.7,0.2 l 2.5,-1.5 v 2.9 c 0,0.3 0.2,0.5 0.5,0.5 h 0.7 c 0.3,0 0.5,-0.2 0.5,-0.5 v -2.9 l 2.5,1.5 c 0.3,0.2 0.6,0.1 0.7,-0.2 l 0.4,-0.6 c 0.2,-0.3 0.1,-0.6 -0.2,-0.7 l -2.6,-1.5 2.6,-1.5 c 0.4,-0.2 0.5,-0.5 0.3,-0.7 z m 7.9,4.4 0.4,0.6 c 0.2,0.3 0.5,0.3 0.7,0.2 l 2.5,-1.5 v 2.9 c 0,0.3 0.2,0.5 0.5,0.5 h 0.7 c 0.3,0 0.5,-0.2 0.5,-0.5 v -2.9 l 2.5,1.5 c 0.3,0.2 0.6,0.1 0.7,-0.2 l 0.4,-0.6 c 0.2,-0.3 0.1,-0.6 -0.2,-0.7 l -2.6,-1.5 2.6,-1.5 c 0.3,-0.2 0.3,-0.5 0.2,-0.7 l -0.4,-0.6 c -0.2,-0.3 -0.5,-0.3 -0.7,-0.2 l -2.5,1.5 v -2.9 c 0,-0.3 -0.2,-0.5 -0.5,-0.5 h -0.7 c -0.3,0 -0.5,0.2 -0.5,0.5 v 2.9 l -2.5,-1.5 c -0.3,-0.2 -0.6,-0.1 -0.7,0.2 l -0.4,0.6 c -0.2,0.3 -0.1,0.6 0.2,0.7 l 2.6,1.5 -2.6,1.5 c -0.2,0.1 -0.3,0.5 -0.2,0.7 z m 21.9,-7.3 h -0.7 c -0.3,0 -0.5,0.2 -0.5,0.5 v 2.9 l -2.5,-1.5 c -0.3,-0.2 -0.6,-0.1 -0.7,0.2 l -0.4,0.6 c -0.2,0.3 -0.1,0.6 0.2,0.7 l 2.6,1.5 -2.6,1.5 c -0.3,0.2 -0.3,0.5 -0.2,0.7 l 0.4,0.6 c 0.2,0.3 0.5,0.3 0.7,0.2 l 2.5,-1.5 v 2.9 c 0,0.3 0.2,0.5 0.5,0.5 h 0.7 c 0.3,0 0.5,-0.2 0.5,-0.5 v -2.9 l 2.5,1.5 c 0.3,0.2 0.6,0.1 0.7,-0.2 l 0.4,-0.6 c 0.2,-0.3 0.1,-0.6 -0.2,-0.7 l -2.5,-1.3 2.6,-1.5 c 0.3,-0.2 0.3,-0.5 0.2,-0.7 l -0.4,-0.6 c -0.2,-0.3 -0.5,-0.3 -0.7,-0.2 l -2.5,1.5 v -2.9 c -0.1,-0.4 -0.3,-0.7 -0.6,-0.7 z m 12.1,7.3 0.4,0.6 c 0.2,0.3 0.5,0.3 0.7,0.2 l 2.5,-1.5 v 2.9 c 0,0.3 0.2,0.5 0.5,0.5 h 0.7 c 0.3,0 0.5,-0.2 0.5,-0.5 v -2.9 l 2.5,1.5 c 0.3,0.2 0.6,0.1 0.7,-0.2 l 0.4,-0.6 c 0.2,-0.3 0.1,-0.6 -0.2,-0.7 l -2.4,-1.5 2.6,-1.5 c 0.3,-0.2 0.3,-0.5 0.2,-0.7 l -0.4,-0.6 c -0.2,-0.3 -0.5,-0.3 -0.7,-0.2 l -2.5,1.5 v -2.9 c 0,-0.3 -0.2,-0.5 -0.5,-0.5 h -0.7 c -0.3,0 -0.5,0.2 -0.5,0.5 v 2.9 l -2.5,-1.5 c -0.3,-0.2 -0.6,-0.1 -0.7,0.2 l -0.4,0.6 c -0.2,0.3 -0.1,0.6 0.2,0.7 l 2.6,1.5 -2.6,1.5 c -0.5,0.1 -0.6,0.5 -0.4,0.7 z"
     id="path4"
     inkscape:connector-curvature="0" /></svg>